<?xml version="1.0" encoding="utf-8"?>
<!-- Generator: Adobe Illustrator 25.0.0, SVG Export Plug-In . SVG Version: 6.00 Build 0)  -->
<svg version="1.1" id="Layer_1" xmlns="http://www.w3.org/2000/svg" xmlns:xlink="http://www.w3.org/1999/xlink" x="0px" y="0px"
	 viewBox="0 0 1000 1000" style="enable-background:new 0 0 1000 1000;" xml:space="preserve">
<style type="text/css">
	.st0{fill:#FFFFFF;}
</style>
<g>
	
		<image style="overflow:visible;opacity:0.3;" width="394" height="152" xlink:href="CBB0A384.png"  transform="matrix(1 0 0 1 385.4961 654.496)">
	</image>
	<g>
		<g>
			<path class="st0" d="M387.4,750.7V664c0-2,0.9-3.6,2.8-4.6c1.9-1,4.1-1.5,6.8-1.5s4.9,0.5,6.8,1.5c1.9,1,2.8,2.6,2.8,4.6v86.7
				c0,7.8,1.9,13.7,5.8,17.5c3.9,3.9,9.3,5.8,16.2,5.8c14.8,0,22.2-7.8,22.2-23.3V664c0-2,0.9-3.6,2.8-4.6c1.9-1,4.1-1.5,6.8-1.5
				s4.9,0.5,6.8,1.5c1.9,1,2.8,2.6,2.8,4.6v86.7c0,13.8-3.8,24-11.3,30.5S441,791,428.5,791c-12.4,0-22.4-3.2-29.9-9.8
				C391.1,774.7,387.4,764.6,387.4,750.7z"/>
			<path class="st0" d="M493.2,783.6V664c0-1.7,0.6-3.1,1.8-4.3c1.2-1.2,2.7-1.8,4.5-1.8h34.3c27.7,0,41.5,12.3,41.5,36.8
				c0,10.2-2.3,18.2-6.9,24c-4.6,5.8-10.8,9.7-18.6,11.6l25.3,47.6c0.5,0.8,0.7,1.8,0.7,2.7c0,2.4-1.2,4.7-3.7,6.7
				c-2.5,2-5.1,3.1-7.9,3.1c-3.1,0-5.7-1.9-7.6-5.6L530.4,733h-18.2v50.5c0,1.9-0.9,3.5-2.8,4.6c-1.9,1.2-4.1,1.7-6.8,1.7
				c-2.5,0-4.7-0.6-6.6-1.7C494.1,787,493.2,785.5,493.2,783.6z M512.2,717.8h21.7c14.9,0,22.4-7.2,22.4-21.5s-7.5-21.5-22.4-21.5
				h-21.7V717.8z"/>
			<path class="st0" d="M584.8,782c0-0.7,0.1-1.3,0.2-1.6l35.9-117c1.5-4.3,5.8-6.5,12.8-6.5c7.2,0,11.5,2,13,6l35.8,117
				c0.2,0.8,0.4,1.3,0.4,1.7c0,2.3-1.4,4.2-4.2,5.9s-5.8,2.5-8.9,2.5c-3.8,0-6.2-1.3-7.1-3.9l-7.5-25.9h-44.4l-7.4,25.8
				c-0.8,2.7-3.1,4-6.7,4c-2.9,0-5.6-0.8-8.1-2.3C586.1,786,584.8,784.1,584.8,782z M615.1,744.9h35.8l-18.1-62L615.1,744.9z"/>
			<path class="st0" d="M675.8,666.7c0-2.3,0.5-4.3,1.6-6.1c1.1-1.8,2.7-2.7,4.7-2.7h75c2,0,3.6,0.8,4.7,2.5s1.6,3.7,1.6,6
				c0,2.6-0.6,4.7-1.7,6.5c-1.2,1.8-2.7,2.6-4.6,2.6h-27.8v108c0,1.9-1,3.5-2.9,4.6c-1.9,1.1-4.2,1.7-6.7,1.7
				c-2.7,0-4.9-0.6-6.8-1.7c-1.9-1.1-2.8-2.7-2.8-4.6v-108h-28c-1.9,0-3.5-0.9-4.6-2.6C676.3,671.2,675.8,669.1,675.8,666.7z"/>
		</g>
	</g>
</g>
<g>
	
		<image style="overflow:visible;opacity:0.3;" width="555" height="307" xlink:href="CBB0A385.png"  transform="matrix(1 0 0 1 229.4961 207.4961)">
	</image>
	<g>
		<path class="st0" d="M323.1,498.1c-3.5-4.3-1.9-9-2-13.3c-0.1-59.9,0-119.7-0.2-179.6c0-11.6-1-23.2-2.3-34.8
			c-2-17.4-17.4-32.8-36.9-38c-12.2-3.2-24.6-3.4-37.1-3.2c-7,0.1-13.4,0-13.4-10.1c0-10,6.4-10.1,13.4-10.1
			c65.3,0,130.5,0.1,195.8,0c103.1,0,206.2-0.1,309.2-0.1c17.9,0,18.8,0.9,18.8,19.2c0,52.4,0,104.7,0,157.1c0,7,0.9,14.7-9.5,15.7
			c-10.2,1-12.2-5.3-14.1-13.4c-6.4-28-13.9-55.9-30.9-79.7c-24.5-34.3-59.6-50.7-100.3-56c-41.4-5.4-83-2-124.5-3
			c-10.2-0.2-12.6,4.7-12.5,13.8c0.2,39.9-0.2,79.8,0.3,119.7c0.1,10.9-2.4,16-14.4,18.1c-36,6.3-65,26.8-91.3,50.9
			C354.6,466.3,339.2,482.4,323.1,498.1z"/>
	</g>
</g>
<g>
	
		<image style="overflow:visible;opacity:0.3;" width="385" height="215" xlink:href="CBB0A383.png"  transform="matrix(1 0 0 1 344.4961 406.4961)">
	</image>
	<g>
		<path class="st0" d="M550.1,508.8c-65-37.9-133.8-31.2-202.8-15.5c-2-3.8,0.5-5.4,2.1-7c16.2-16.7,32.5-33.2,51.5-47
			c59.2-43.1,118.2-41.1,174.1,6.8c22.4,19.2,44.7,38.5,70.2,53.6c18.3,10.8,37.6,19.5,58.5,24.1c12.4,2.7,12.9,4.8,4.6,13.8
			c-38.2,41.1-84.7,65.2-141.2,67.8c-23.4,1-46.4-3-68.9-9.4c-49.1-14.1-92.4-39.2-131.7-71.4c-9.7-8-9.4-9.7,2-15
			c39.4-18.3,80.6-21.9,123-14.9C511.5,498,530.8,503.6,550.1,508.8z"/>
	</g>
</g>
<g>
	
		<image style="overflow:visible;opacity:0.3;" width="119" height="216" xlink:href="CBB0A38C.png"  transform="matrix(1 0 0 1 294.4961 523.496)">
	</image>
	<g>
		<path class="st0" d="M351.9,625.2c10.1-35.5-2.2-67.5-16.2-99.8c47.7,9.7,75.4,63.4,56.1,107.1c-5.2,11.8-11.3,23.2-17.2,34.6
			c-7.7,15-12.8,30.7-12.9,47.7c-0.1,10.9-4.5,10.6-12.2,6.1c-35.3-20.6-57.4-67-51.8-107.4c3.5-24.9,10-48.8,20.9-71.5
			c4.5-9.4,8.3-9.7,14.1-0.9c11.6,17.9,18,37.4,19.2,58.5C352.3,608.1,351.9,616.7,351.9,625.2z"/>
	</g>
</g>
</svg>
